<svg width="30" height="44" viewBox="0 0 30 44" fill="none" xmlns="http://www.w3.org/2000/svg">
<path d="M19.3533 16.0283H18.3328C18.2234 15.2173 17.827 14.4723 17.2156 13.9284C16.6041 13.3845 15.818 13.0776 14.9998 13.0635C14.1815 13.0776 13.3955 13.3845 12.784 13.9284C12.1725 14.4723 11.7762 15.2173 11.6668 16.0283H10.6468C10.0856 16.0286 9.54744 16.2517 9.15053 16.6485C8.75362 17.0452 8.53037 17.5833 8.52979 18.1445V25.86C8.53029 26.4211 8.75339 26.9591 9.15013 27.356C9.54687 27.7528 10.0848 27.976 10.646 27.9767H19.353C19.9142 27.9762 20.4524 27.753 20.8492 27.3562C21.2461 26.9593 21.4693 26.4212 21.4698 25.86V18.1445C21.4692 17.5834 21.246 17.0454 20.8492 16.6486C20.4524 16.2519 19.9144 16.0288 19.3533 16.0283ZM14.9998 14.1631C15.5272 14.1745 16.0349 14.3656 16.439 14.7048C16.843 15.0439 17.1193 15.5108 17.222 16.0283H12.7776C12.8803 15.5108 13.1565 15.0439 13.5606 14.7048C13.9647 14.3656 14.4724 14.1745 14.9998 14.1631ZM20.3698 25.86C20.3695 26.1296 20.2623 26.388 20.0717 26.5787C19.8812 26.7693 19.6228 26.8767 19.3532 26.8771H10.6463C10.3767 26.8766 10.1183 26.7693 9.9278 26.5786C9.73725 26.388 9.63008 26.1295 9.62979 25.86V18.1445C9.6301 17.875 9.73731 17.6166 9.92789 17.426C10.1185 17.2354 10.3769 17.1282 10.6464 17.1279H19.3534C19.6229 17.1282 19.8812 17.2355 20.0718 17.4261C20.2623 17.6166 20.3695 17.875 20.3698 18.1445V25.86Z" fill="black" fill-opacity="0.8"/>
</svg>
