<svg width="31" height="44" viewBox="0 0 31 44" fill="none" xmlns="http://www.w3.org/2000/svg">
<path d="M22.2982 27.202L18.4282 23.332C19.1292 22.403 19.5502 21.251 19.5502 20C19.5502 16.94 17.0612 14.45 14.0002 14.45C10.9402 14.45 8.4502 16.94 8.4502 20C8.4502 23.061 10.9402 25.55 14.0002 25.55C15.2512 25.55 16.4032 25.129 17.3322 24.428L21.2022 28.298C21.3532 28.449 21.5522 28.526 21.7502 28.526C21.9482 28.526 22.1462 28.45 22.2982 28.298C22.6012 27.995 22.6012 27.505 22.2982 27.202ZM9.5502 20C9.5502 17.546 11.5472 15.55 14.0002 15.55C16.4542 15.55 18.4502 17.547 18.4502 20C18.4502 22.453 16.4542 24.45 14.0002 24.45C11.5462 24.45 9.5502 22.454 9.5502 20Z" fill="black" fill-opacity="0.8"/>
</svg>
